<svg width="27" height="37" viewBox="0 0 27 37" fill="none" xmlns="http://www.w3.org/2000/svg">
<rect x="0.5" y="0.5" width="26" height="36" fill="#E7E5EB" stroke="#C8C5D1"/>
<g clip-path="url(#clip0_224_8005)">
<path d="M14 13C10.682 13 8 15.682 8 19C8 22.318 10.682 25 14 25C17.318 25 20 22.318 20 19C20 15.682 17.318 13 14 13ZM14 23.8C11.354 23.8 9.2 21.646 9.2 19C9.2 16.354 11.354 14.2 14 14.2C16.646 14.2 18.8 16.354 18.8 19C18.8 21.646 16.646 23.8 14 23.8ZM16.154 16L14 18.154L11.846 16L11 16.846L13.154 19L11 21.154L11.846 22L14 19.846L16.154 22L17 21.154L14.846 19L17 16.846L16.154 16Z" fill="#B0B0B0"/>
</g>
<defs>
<clipPath id="clip0_224_8005">
<rect width="16" height="16" fill="white" transform="translate(6 11)"/>
</clipPath>
</defs>
</svg>
